<svg width="152" height="58" viewBox="0 0 152 58" fill="none" xmlns="http://www.w3.org/2000/svg">
<g clip-path="url(#clip0_980_12151)">
<path d="M81.3219 23.327C80.9201 23.0246 80.0308 22.5858 78.252 22.5663C76.8848 22.5526 75.9661 23.0227 75.5429 23.286C75.1548 22.7106 74.989 22.0982 74.989 22.0982C74.989 22.0982 74.3863 19.9079 76.4342 18.4139C77.5635 17.5908 79.6602 18.4042 81.3161 19.2994C81.7569 19.7577 82.6014 20.4969 83.7151 20.809C85.0842 21.1913 86.8591 20.9299 88.79 18.7084C88.79 18.7084 85.6655 14.8018 82.0962 18.1623C82.0124 18.2423 78.4939 11.6968 84.6376 7.68674C85.8839 8.97205 87.8655 7.14453 87.8655 7.14453C86.588 5.5023 85.41 5.7812 84.7897 6.12252C84.5323 5.43013 83.6526 2.17687 88.79 0.0626465C88.79 0.0626465 82.6891 -0.764321 75.5449 3.59091L74.4702 3.62407L73.3955 3.59091C66.2473 -0.764321 60.1484 0.0626465 60.1484 0.0626465C65.2858 2.17687 64.4061 5.43013 64.1487 6.12252C63.5304 5.7812 62.3504 5.5023 61.0729 7.14453C61.0729 7.14453 63.0526 8.97205 64.3008 7.68674C70.4446 11.6968 66.9261 18.2423 66.8422 18.1623C63.273 14.8018 60.1484 18.7084 60.1484 18.7084C62.0793 20.9299 63.8542 21.1913 65.2234 20.809C66.337 20.4969 67.1835 19.7577 67.6224 19.2994C69.2782 18.4042 71.3749 17.5908 72.5042 18.4139C74.5502 19.906 73.9494 22.0982 73.9494 22.0982C73.9494 22.0982 73.7836 22.7126 73.3955 23.286C72.9703 23.0227 72.0517 22.5526 70.6864 22.5663C68.9077 22.5839 68.0183 23.0246 67.6165 23.327C67.359 23.52 67.2128 23.8341 67.2479 24.1559C67.2674 24.3295 67.3961 24.663 67.5775 24.8093C68.0475 25.1876 69.838 26.4827 72.9138 24.111C72.9138 24.111 73.0288 24.0447 73.181 23.8984L73.1849 23.8945C73.2356 23.8458 73.2902 23.7892 73.3487 23.7268L73.3546 23.7209C73.3546 23.7209 74.3649 24.5986 73.8227 25.1603C73.2804 25.722 72.6661 26.1687 70.6494 26.0985C70.6494 26.0985 71.921 26.8182 73.5164 25.8625C74.8798 25.0453 74.203 24.1442 74.0099 23.8653C73.9787 23.8204 73.9455 23.7833 73.9085 23.7326C73.8617 23.6702 73.7485 23.5591 73.5964 23.4342C73.9767 22.9447 74.3805 22.2191 74.4019 21.3239C74.4312 20.1205 74.1211 18.4841 73.1147 17.5245C73.8461 17.0759 74.2576 16.4167 74.4702 15.9662C74.6828 16.4167 75.0943 17.0759 75.8257 17.5245C74.8193 18.4841 74.5092 20.1205 74.5385 21.3239C74.5599 22.2191 74.9636 22.9447 75.344 23.4342C75.1918 23.561 75.0787 23.6702 75.0319 23.7326C74.9948 23.7833 74.9617 23.8204 74.9305 23.8653C74.7374 24.1442 74.0606 25.0453 75.4239 25.8625C77.0194 26.8182 78.291 26.0985 78.291 26.0985C76.2743 26.1687 75.6599 25.722 75.1177 25.1603C74.5755 24.5986 75.5858 23.7209 75.5858 23.7209L75.5917 23.7268C75.6502 23.7911 75.7048 23.8458 75.7555 23.8945L75.7594 23.8984C75.9096 24.0466 76.0266 24.111 76.0266 24.111C79.1024 26.4827 80.8928 25.1876 81.3629 24.8093C81.5443 24.663 81.673 24.3314 81.6925 24.1559C81.7296 23.836 81.5833 23.522 81.3239 23.327H81.3219ZM87.7894 18.6089C87.7894 18.6089 85.5192 21.8661 82.379 18.4393C82.379 18.4393 84.6903 15.5195 87.7894 18.6089ZM87.2082 7.008C87.2082 7.008 86.0321 8.27381 84.7195 7.08992C84.7195 7.08992 85.7805 5.60372 87.2082 7.008ZM61.7302 7.008C63.1579 5.60372 64.2189 7.08992 64.2189 7.08992C62.9043 8.27381 61.7302 7.008 61.7302 7.008ZM61.147 18.6089C64.2462 15.5215 66.5574 18.4393 66.5574 18.4393C63.4173 21.8661 61.147 18.6089 61.147 18.6089ZM67.6848 24.4328C67.3629 23.9355 67.872 23.6507 67.872 23.6507C70.9497 22.0143 73.1868 23.5591 73.1868 23.5591C70.2261 26.0712 68.0358 24.977 67.6828 24.4348L67.6848 24.4328ZM70.5577 16.6488C69.9141 16.6488 68.5468 17.3939 68.5468 17.3939C69.6508 16.2899 70.2242 14.2927 70.2242 14.2927C70.7644 15.7185 70.5577 16.6488 70.5577 16.6488ZM71.8586 16.8282C71.8157 16.8165 71.7728 16.8068 71.7299 16.799C72.3618 10.4017 64.8898 6.58672 64.8898 6.58672C65.7246 4.11947 65.6388 1.98183 65.6388 1.98183C70.7157 2.24319 73.1771 5.83777 73.1771 5.83777C73.1771 5.83777 73.2336 11.1467 73.2336 13.8324C73.2336 15.5351 72.4301 16.4187 71.8586 16.8302V16.8282ZM78.3807 16.6488C78.3807 16.6488 78.174 15.7185 78.7142 14.2927C78.7142 14.2927 79.2877 16.2899 80.3916 17.3939C80.3916 17.3939 79.0244 16.6488 78.3807 16.6488ZM75.7048 13.8305C75.7048 11.1448 75.7613 5.83581 75.7613 5.83581C75.7613 5.83581 78.2227 2.24124 83.2996 1.97988C83.2996 1.97988 83.2138 4.11752 84.0486 6.58477C84.0486 6.58477 76.5766 10.3978 77.2085 16.797C77.1656 16.8068 77.1227 16.8165 77.0798 16.8263C76.5103 16.4148 75.7048 15.5332 75.7048 13.8285V13.8305ZM81.2537 24.4328C80.9006 24.975 78.7103 26.0692 75.7496 23.5571C75.7496 23.5571 77.9867 22.0124 81.0645 23.6488C81.0645 23.6488 81.5755 23.9355 81.2517 24.4309L81.2537 24.4328Z" fill="#FDFCF3"/>
<path d="M74.49 29.4176C75.3345 29.4176 76.0192 28.733 76.0192 27.8885C76.0192 27.044 75.3345 26.3594 74.49 26.3594C73.6455 26.3594 72.9609 27.044 72.9609 27.8885C72.9609 28.733 73.6455 29.4176 74.49 29.4176Z" fill="#FDFCF3"/>
<path d="M9.84726 35.3047H0V38.313H0.445673C0.758706 36.005 2.07981 35.9891 3.17277 35.9891H3.65028V44.5895C3.65028 45.396 3.07196 45.534 2.67404 45.534H2.03206V45.9425H7.8152V45.534H7.17322C6.7753 45.534 6.19698 45.396 6.19698 44.5895V35.9891H6.67449C7.78337 35.9891 9.05141 36.005 9.40159 38.313H9.84726V35.3047Z" fill="#FDFCF3"/>
<path d="M16.2052 42.1308C16.2052 39.8494 14.9159 38.4062 13.0006 38.4062C11.0852 38.4062 9.5625 40.2473 9.5625 42.5871C9.5625 44.4122 10.6873 46.1578 12.9846 46.1578C13.8123 46.1578 15.282 45.8819 16.2052 43.9559L15.7913 43.7437C15.2767 44.6404 14.6824 44.9269 14.0723 44.9269C12.5177 44.9269 11.8068 43.5739 11.8598 42.1308H16.2052ZM13.0165 39.027C13.1969 39.027 14.189 39.1172 14.0564 41.5047H11.8598C11.9076 39.3931 12.539 39.027 13.0165 39.027Z" fill="#FDFCF3"/>
<path d="M23.5436 45.1338C23.2306 45.1338 23.1298 44.8473 23.1298 44.5714V40.3799C23.1298 39.6531 22.8963 38.4062 20.3867 38.4062C18.9808 38.4062 17.1132 39.0429 17.1132 40.4277C17.1132 40.502 17.145 41.4305 18.2857 41.4305C18.9277 41.4305 19.3946 41.0378 19.3946 40.502C19.3946 40.2155 19.3097 40.1094 19.1293 39.9237C19.0126 39.8016 18.9171 39.6637 18.9171 39.4992C18.9171 39.2127 19.3946 38.9952 19.8774 38.9952C20.4876 38.9952 20.8855 39.3453 20.8855 39.9396V41.457C17.1185 42.794 16.9062 43.9029 16.9062 44.7093C16.9062 45.6219 17.5854 46.1525 18.4449 46.1525C19.3681 46.1525 20.1639 45.6378 20.9067 44.9799H20.9704C21.103 45.8925 21.5646 46.1525 22.3604 46.1525C23.3048 46.1525 23.7505 45.7705 24.3448 44.9799L24.0476 44.7995C23.915 44.9693 23.7505 45.1338 23.5542 45.1338H23.5436ZM20.8855 44.2955C20.408 44.7677 20.0949 44.7942 19.8456 44.7942C19.384 44.7942 19.1824 44.3857 19.1824 43.9135C19.1824 43.0646 19.8933 42.5287 20.8855 42.0618V44.2955Z" fill="#FDFCF3"/>
<path d="M28.1507 45.1107C27.705 45.1107 27.5883 44.7923 27.5883 44.0495V39.2957H29.2914V38.6749H27.5883V35.9531H27.2753C26.7129 37.1522 25.4554 38.4733 24.3359 38.9296V39.2957H25.344V44.0495C25.344 46.1187 26.8455 46.1612 27.2593 46.1612C28.2356 46.1612 28.9306 45.7526 29.44 44.336L29.0102 44.214C28.9094 44.5483 28.6972 45.1107 28.1507 45.1107Z" fill="#FDFCF3"/>
<path d="M34.7322 38.4037C33.7718 38.4037 33.1458 39.0245 32.8805 39.4967V38.6584H29.8881V38.9927H29.9889C30.5832 38.9927 30.6309 39.4012 30.6309 39.6453V44.9509C30.6309 45.179 30.5832 45.5876 29.9677 45.5876H29.8828V45.9377H33.618V45.5876H33.5331C32.9229 45.5876 32.8699 45.179 32.8699 44.9509V41.3484C32.8699 40.786 32.8858 39.9052 33.6127 39.9052C33.9257 39.9052 34.0106 40.0432 34.1273 40.2077C34.2122 40.3297 34.3926 40.5419 34.8542 40.5419C35.5652 40.5419 35.979 40.0379 35.979 39.449C35.979 38.8282 35.4484 38.3984 34.7216 38.3984L34.7322 38.4037Z" fill="#FDFCF3"/>
<path d="M39.8521 38.4062C37.7192 38.4062 36.1328 40.0616 36.1328 42.2794C36.1328 44.9693 38.1808 46.1525 39.8521 46.1525C41.5233 46.1525 43.5713 44.9693 43.5713 42.2794C43.5713 40.0775 42.0327 38.4062 39.8521 38.4062ZM39.8521 45.5317C38.5787 45.5317 38.5469 43.6801 38.5469 42.2794C38.5469 40.8787 38.5787 39.027 39.8521 39.027C41.1254 39.027 41.1572 40.8787 41.1572 42.2794C41.1572 43.6801 41.1254 45.5317 39.8521 45.5317Z" fill="#FDFCF3"/>
<path d="M57.6441 44.8271L53.2351 35.0859H52.869L48.9853 44.2806C48.5396 45.2993 48.2266 45.5274 47.6164 45.5274H47.5156V45.936H50.9855V45.5274H50.9218C50.195 45.5274 49.6007 45.4372 49.6007 44.8908C49.6007 44.6467 49.6856 44.4504 49.7493 44.2806L50.4125 42.6836H54.015L54.8427 44.5512C54.8905 44.6255 54.9276 44.8695 54.9276 44.9438C54.9276 45.416 54.466 45.5221 53.8718 45.5221H53.3943V45.9307H58.6469V45.5221H58.5991C58.0845 45.5221 57.8404 45.2356 57.66 44.8218L57.6441 44.8271ZM50.7043 42.0045L52.1421 38.5558L53.7126 42.0045H50.7043Z" fill="#FDFCF3"/>
<path d="M63.6228 38.4037C62.6625 38.4037 62.0364 39.0245 61.7711 39.4967V38.6584H58.7787V38.9927H58.8796C59.4738 38.9927 59.5215 39.4012 59.5215 39.6453V44.9509C59.5215 45.179 59.4738 45.5876 58.8583 45.5876H58.7734V45.9377H62.5086V45.5876H62.4237C61.8136 45.5876 61.7605 45.179 61.7605 44.9509V41.3484C61.7605 40.786 61.7764 39.9052 62.5033 39.9052C62.8163 39.9052 62.9012 40.0432 63.0179 40.2077C63.1028 40.3297 63.2832 40.5419 63.7448 40.5419C64.4558 40.5419 64.8696 40.0379 64.8696 39.449C64.8696 38.8282 64.3391 38.3984 63.6122 38.3984L63.6228 38.4037Z" fill="#FDFCF3"/>
<path d="M68.9085 45.1028C68.4628 45.1028 68.3461 44.7845 68.3461 44.0417V39.2879H70.0492V38.6671H68.3461V35.9453H68.0331C67.4707 37.1444 66.2132 38.4655 65.0938 38.9218V39.2879H66.1018V44.0417C66.1018 46.1109 67.6033 46.1534 68.0172 46.1534C68.9934 46.1534 69.6884 45.7448 70.1978 44.3282L69.768 44.2062C69.6672 44.5404 69.455 45.1028 68.9085 45.1028Z" fill="#FDFCF3"/>
<path d="M77.3694 44.9478V40.4964C77.3694 39.0373 76.6107 38.4007 75.5018 38.4007C74.9394 38.4007 74.133 38.5068 73.2522 39.4777V35.2969H70.1484V35.647H70.3447C70.9549 35.647 71.0079 36.0556 71.0079 36.2837V44.9425C71.0079 45.1707 70.9602 45.5792 70.3447 45.5792H70.2599V45.9294H73.9101V45.5792C73.3 45.5792 73.2469 45.1866 73.2469 44.9425V40.3691C73.5122 39.9446 73.8889 39.4247 74.4672 39.4247C75.1304 39.4247 75.1092 40.0932 75.1092 40.2152V44.9425C75.1092 45.1866 75.0615 45.5792 74.446 45.5792V45.9294H78.0963V45.5792H78.0114C77.4012 45.5792 77.3482 45.1707 77.3482 44.9425L77.3694 44.9478Z" fill="#FDFCF3"/>
<path d="M85.5956 44.9487V38.6562H82.5873V39.0064H82.6881C83.2982 39.0064 83.3513 39.415 83.3513 39.6431V43.9725C83.1709 44.2908 82.6562 45.0336 82.1946 45.0336C81.6482 45.0336 81.5314 44.5614 81.5314 44.0786V38.6562H78.5391V39.0064H78.624C79.2341 39.0064 79.2872 39.415 79.2872 39.6431V44.0627C79.2872 45.2777 80.0618 46.1425 81.2715 46.1425C82.1469 46.1425 82.9056 45.7181 83.3513 45.0336V45.9303H86.3437V45.5801H86.2588C85.6486 45.5801 85.5956 45.1716 85.5956 44.9434V44.9487Z" fill="#FDFCF3"/>
<path d="M91.6775 38.4037C90.7172 38.4037 90.0911 39.0245 89.8258 39.4967V38.6584H86.8334V38.9927H86.9342C87.5285 38.9927 87.5762 39.4012 87.5762 39.6453V44.9509C87.5762 45.179 87.5285 45.5876 86.913 45.5876H86.8281V45.9377H90.5633V45.5876H90.4784C89.8683 45.5876 89.8152 45.179 89.8152 44.9509V41.3484C89.8152 40.786 89.8311 39.9052 90.558 39.9052C90.871 39.9052 90.9559 40.0432 91.0726 40.2077C91.1575 40.3297 91.3379 40.5419 91.7995 40.5419C92.5105 40.5419 92.9243 40.0379 92.9243 39.449C92.9243 38.8282 92.3937 38.3984 91.6669 38.3984L91.6775 38.4037Z" fill="#FDFCF3"/>
<path d="M108.21 40.8065H108.592C108.81 39.5596 109.404 39.3633 110.131 39.3633H111.685L107.786 45.5656C107.478 45.4701 107.298 45.2261 107.16 44.913L102.751 35.1719H102.385L98.5009 44.3665C98.0552 45.3852 97.7422 45.6134 97.1321 45.6134H97.0312V46.0219H100.501V45.6134H100.437C99.7106 45.6134 99.1164 45.5232 99.1164 44.9767C99.1164 44.7326 99.2013 44.5363 99.2649 44.3665L99.9281 42.7696H103.531L104.358 44.6371C104.406 44.7114 104.443 44.9555 104.443 45.0297C104.443 45.502 103.982 45.6081 103.387 45.6081H102.91V46.0166H114.062L114.328 43.645H113.946C113.5 45.364 112.444 45.3905 111.929 45.3905H110.359L114.322 39.0715V38.7373H108.391L108.226 40.8065H108.21ZM100.215 42.0851L101.652 38.6365L103.223 42.0851H100.215Z" fill="#FDFCF3"/>
<path d="M121.604 42.2089C121.604 39.9275 120.314 38.4844 118.399 38.4844C116.484 38.4844 114.961 40.3254 114.961 42.6652C114.961 44.4904 116.086 46.2359 118.383 46.2359C119.211 46.2359 120.68 45.96 121.604 44.0341L121.19 43.8218C120.675 44.7185 120.081 45.005 119.471 45.005C117.916 45.005 117.205 43.6521 117.258 42.2089H121.604ZM118.415 39.1051C118.595 39.1051 119.587 39.1953 119.455 41.5829H117.258C117.306 39.4712 117.937 39.1051 118.415 39.1051Z" fill="#FDFCF3"/>
<path d="M128.881 38.7422H126.653V39.0924H126.717C126.966 39.0924 127.327 39.1666 127.327 39.5805C127.327 39.7609 127.279 39.8564 127.21 40.0208L126.069 42.923L124.977 39.8245C124.929 39.7025 124.892 39.6123 124.892 39.4744C124.892 39.2781 125.024 39.0924 125.353 39.0924H125.55V38.7422H121.57V39.0924H121.634C122.149 39.0924 122.276 39.5168 122.329 39.6388L125.024 46.2338H125.502L127.964 39.9572C128.144 39.5168 128.346 39.0924 128.871 39.0924V38.7422H128.881Z" fill="#FDFCF3"/>
<path d="M135.51 42.2089C135.51 39.9275 134.221 38.4844 132.305 38.4844C130.39 38.4844 128.867 40.3254 128.867 42.6652C128.867 44.4904 129.992 46.2359 132.289 46.2359C133.117 46.2359 134.587 45.96 135.51 44.0341L135.096 43.8218C134.581 44.7185 133.987 45.005 133.377 45.005C131.822 45.005 131.111 43.6521 131.165 42.2089H135.51ZM132.321 39.1051C132.502 39.1051 133.494 39.1953 133.361 41.5829H131.165C131.212 39.4712 131.844 39.1051 132.321 39.1051Z" fill="#FDFCF3"/>
<path d="M143.121 44.6758V35.375H140.017V35.7252H140.213C140.824 35.7252 140.877 36.1337 140.877 36.3618V39.142C140.627 38.8555 140.134 38.4735 139.322 38.4735C137.486 38.4735 136.531 40.4472 136.531 42.2087C136.531 45.2488 137.985 46.2197 139.189 46.2197C140.033 46.2197 140.558 45.7475 140.877 45.339V46.2197H141.322L143.917 45.6573V45.3231H143.816C143.19 45.3231 143.121 44.9145 143.121 44.6705V44.6758ZM140.877 44.2513C140.829 44.9676 140.399 45.2223 140.001 45.2223C138.876 45.2223 138.945 43.5987 138.945 42.3201C138.945 41.1953 138.728 39.264 139.868 39.264C140.282 39.264 140.564 39.5505 140.877 39.9325V44.246V44.2513Z" fill="#FDFCF3"/>
<path d="M148.282 38.4844C146.149 38.4844 144.562 40.1397 144.562 42.3575C144.562 45.0474 146.61 46.2306 148.282 46.2306C149.953 46.2306 152.001 45.0474 152.001 42.3575C152.001 40.1557 150.462 38.4844 148.282 38.4844ZM148.282 45.6098C147.008 45.6098 146.977 43.7582 146.977 42.3575C146.977 40.9568 147.008 39.1051 148.282 39.1051C149.555 39.1051 149.587 40.9568 149.587 42.3575C149.587 43.7582 149.555 45.6098 148.282 45.6098Z" fill="#FDFCF3"/>
</g>
<defs>
<clipPath id="clip0_980_12151">
<rect width="152" height="65" fill="white"/>
</clipPath>
</defs>
</svg>
