<svg width="114" height="33" viewBox="0 0 114 33" fill="none" xmlns="http://www.w3.org/2000/svg">
<g opacity="0.71">
<path d="M17.6481 6.75781H14.2563C13.7206 6.75781 13.4152 6.94423 13.2114 7.29121L9.28388 14.3574L5.35639 7.29121C5.15251 6.94423 4.84714 6.75781 4.31053 6.75781H0.918768C0.281544 6.75781 0 7.05035 0 7.71849V24.6784C0 25.3447 0.280661 25.6382 0.918768 25.6382H4.4385C5.07573 25.6382 5.35727 25.3456 5.35727 24.6784V16.0111L8.62194 21.7447C8.74903 21.9579 8.9282 22.1452 9.28476 22.1452C9.64221 22.1452 9.82049 21.9588 9.94758 21.7447L13.2122 16.0111V24.6775C13.2122 25.3438 13.492 25.6373 14.131 25.6373H17.6508H16.3631C15.9041 25.6373 15.6173 25.3826 15.5996 24.9627V24.9599C15.597 24.9027 15.6014 24.8418 15.6085 24.779C15.6199 24.6886 15.6411 24.5926 15.6747 24.4911L18.5686 15.2369V7.71757C18.5669 7.05128 18.2862 6.75781 17.6481 6.75781Z" fill="#FDF6EB"/>
<path d="M35.5254 1.95527C35.626 1.95527 35.6825 2.00786 35.6825 2.11951V4.22794C35.6825 4.34605 35.6127 4.41249 35.5439 4.45863C35.2474 4.64317 34.7815 4.78896 34.1081 4.78896C32.7474 4.78896 31.9531 4.05078 31.9531 2.39079C31.9531 0.744645 32.7526 0 34.1637 0C34.7303 0 35.1847 0.157789 35.4363 0.315576C35.5307 0.368171 35.5677 0.420767 35.5307 0.520422L35.3727 0.928266C35.3348 1.027 35.2783 1.06022 35.1583 1.00762C34.9624 0.921809 34.6606 0.817539 34.2758 0.817539C33.2742 0.817539 32.8453 1.27798 32.8453 2.39172C32.8453 3.51744 33.2857 3.97235 34.2061 3.97235C34.4708 3.97235 34.7294 3.91237 34.8803 3.8404V2.67499H34.1937C34.0861 2.67499 34.0358 2.62886 34.0358 2.52274V2.12043C34.0358 2.01524 34.0861 1.95619 34.1937 1.95619L35.5254 1.95527Z" fill="#FDF6EB"/>
<path d="M41.4462 2.39817C41.4462 3.99818 40.7155 4.78896 39.4747 4.78896C38.2463 4.78896 37.5156 3.99818 37.5156 2.39817C37.5156 0.797237 38.2463 0 39.4809 0C40.7146 0 41.4462 0.797237 41.4462 2.39817ZM40.5443 2.39817C40.5443 1.33796 40.1913 0.804621 39.48 0.804621C38.7626 0.804621 38.4087 1.33796 38.4087 2.39817C38.4087 3.45839 38.7617 3.98619 39.48 3.98619C40.1922 3.98619 40.5443 3.45931 40.5443 2.39817Z" fill="#FDF6EB"/>
<path d="M44.4314 4.71483C44.3246 4.71483 44.2743 4.6687 44.2355 4.55705L42.8368 0.262671C42.7988 0.150099 42.8491 0.078125 42.9568 0.078125H43.5675C43.6743 0.078125 43.7246 0.130718 43.7493 0.222991L44.5055 2.6793L44.7826 3.76627H44.795L45.065 2.6793L45.8213 0.222991C45.8469 0.130718 45.8972 0.078125 46.0031 0.078125H46.6208C46.7214 0.078125 46.7717 0.151021 46.7338 0.262671L45.3413 4.55705C45.3033 4.66962 45.2468 4.71483 45.14 4.71483H44.4314Z" fill="#FDF6EB"/>
<path d="M49.384 2.73189V3.92498H51.1736C51.2804 3.92498 51.3307 3.97112 51.3307 4.08277V4.55059C51.3307 4.6687 51.2804 4.71483 51.1736 4.71483H48.6727C48.5597 4.71483 48.5156 4.6687 48.5156 4.55059V0.235909C48.5156 0.124259 48.5597 0.078125 48.6665 0.078125H51.1489C51.2557 0.078125 51.306 0.124259 51.306 0.235909V0.703733C51.306 0.815383 51.2557 0.86798 51.1489 0.86798H49.3849V1.96787H51.0669C51.1675 1.96787 51.2178 2.02785 51.2178 2.13212V2.56764C51.2178 2.67284 51.1675 2.73189 51.0669 2.73189H49.384Z" fill="#FDF6EB"/>
<path d="M54.78 0.078125C56.0022 0.078125 56.6199 0.533028 56.6199 1.63938C56.6199 2.44308 56.2034 2.8906 55.5363 3.04285L56.6076 4.51184C56.6773 4.60411 56.6394 4.71668 56.5132 4.71668H55.9148C55.8019 4.71668 55.7507 4.66409 55.6942 4.58473L54.6732 3.16834H54.0872V4.55151C54.0872 4.66962 54.0369 4.71668 53.9293 4.71668H53.368C53.2551 4.71668 53.2109 4.67055 53.2109 4.55151V0.236832C53.2109 0.125181 53.2551 0.0790472 53.368 0.0790472L54.78 0.078125ZM54.7614 2.40248C55.4789 2.40248 55.7375 2.15888 55.7375 1.63846C55.7375 1.07836 55.4604 0.86798 54.7667 0.86798H54.0864V2.40248H54.7614Z" fill="#FDF6EB"/>
<path d="M62.0569 4.5545C62.0569 4.67261 62.0066 4.71874 61.906 4.71874H61.3394C61.2318 4.71874 61.1885 4.68645 61.1435 4.60709L59.3733 1.62299V4.5545C59.3733 4.67261 59.3291 4.71874 59.2224 4.71874H58.6805C58.5676 4.71874 58.5234 4.67261 58.5234 4.5545V0.239816C58.5234 0.128165 58.5676 0.0820312 58.6805 0.0820312H59.2347C59.3477 0.0820312 59.3927 0.108789 59.4368 0.187221L61.207 3.17779V0.239816C61.207 0.128165 61.2512 0.0820312 61.3579 0.0820312H61.906C62.0066 0.0820312 62.0569 0.128166 62.0569 0.233357V4.5545Z" fill="#FDF6EB"/>
<path d="M67.8798 2.39817C67.8798 3.99818 67.1491 4.78896 65.9083 4.78896C64.6799 4.78896 63.9492 3.99818 63.9492 2.39817C63.9492 0.797237 64.6799 0 65.9145 0C67.1482 0 67.8798 0.797237 67.8798 2.39817ZM66.9788 2.39817C66.9788 1.33796 66.6258 0.804621 65.9136 0.804621C65.1962 0.804621 64.8423 1.33796 64.8423 2.39817C64.8423 3.45839 65.1953 3.98619 65.9136 3.98619C66.6258 3.98619 66.9788 3.45931 66.9788 2.39817Z" fill="#FDF6EB"/>
<path d="M72.911 4.71483C72.798 4.71483 72.7539 4.6687 72.7539 4.55059V0.235909C72.7539 0.124259 72.798 0.078125 72.9048 0.078125H74.1209C75.5443 0.078125 76.32 0.690814 76.32 2.3508C76.32 4.09568 75.5452 4.71576 74.1279 4.71576L72.911 4.71483ZM73.6355 0.893816V3.89822H74.0953C74.9521 3.89822 75.4243 3.58818 75.4243 2.34988C75.4243 1.19739 74.9522 0.893816 74.0891 0.893816H73.6355Z" fill="#FDF6EB"/>
<path d="M81.7069 2.39171C81.7069 3.97327 81.0132 4.78251 79.8925 4.78251C78.7709 4.78251 78.0781 3.97235 78.0781 2.39817C78.0781 0.810155 78.7709 0 79.8925 0C81.0132 0 81.7069 0.810155 81.7069 2.39171ZM80.8306 2.39171C80.8306 1.3315 80.5217 0.798162 79.8925 0.798162C79.2686 0.798162 78.9597 1.3315 78.9597 2.39171C78.9597 3.45931 79.2686 3.99265 79.8925 3.99265C80.5226 3.99265 80.8306 3.45839 80.8306 2.39171Z" fill="#FDF6EB"/>
<path d="M90.686 4.03906C89.829 4.03906 89.3516 4.61215 89.3516 5.5516C89.3516 6.02132 89.4919 6.13853 89.8008 6.13853H90.3904C90.6428 6.13853 90.7558 6.06469 90.7981 5.83029L90.8122 5.7417C90.8405 5.58021 90.9667 5.52114 91.1635 5.52114C91.3453 5.52114 91.5713 5.56544 91.8096 5.66787L92.5677 5.9761C92.8625 6.09423 93.2137 6.1819 93.7053 6.1819C94.52 6.1819 94.9974 5.69741 94.9974 4.75703C94.9974 4.28731 94.8571 4.08151 94.5482 4.08151H93.9578C93.7053 4.08151 93.5924 4.15534 93.55 4.38974L93.5359 4.47833C93.5085 4.62506 93.3673 4.69797 93.1705 4.69797C92.9887 4.69797 92.7486 4.63891 92.5377 4.55124L91.7795 4.24301C91.4865 4.12766 91.1353 4.03906 90.686 4.03906Z" fill="#FDF6EB"/>
<path d="M20.9492 29.9373C20.9492 29.8893 20.9748 29.8672 21.0163 29.8672H22.911C22.9604 29.8672 22.9816 29.8893 22.9816 29.9373V30.1422C22.9816 30.1901 22.9604 30.216 22.911 30.216H22.1441V32.8504C22.1441 32.902 22.1229 32.9242 22.0735 32.9242H21.8573C21.8114 32.9242 21.7867 32.903 21.7867 32.8504V30.216H21.0198C20.9739 30.216 20.9492 30.1892 20.9492 30.1422V29.9373Z" fill="#FDF6EB"/>
<path d="M25.1509 29.8672C25.9628 29.8672 26.3334 30.1855 26.3334 30.8517C26.3334 31.4266 26.0175 31.7219 25.488 31.7874L26.3378 32.8282C26.3669 32.8716 26.359 32.9242 26.2955 32.9242H26.0413C25.9875 32.9242 25.9663 32.903 25.9372 32.8679L25.0962 31.8271H24.5888V32.8504C24.5888 32.902 24.5632 32.9242 24.5182 32.9242H24.3011C24.2516 32.9242 24.2305 32.903 24.2305 32.8504V29.9382C24.2305 29.8903 24.2508 29.8681 24.3011 29.8681L25.1509 29.8672ZM25.1341 31.4829C25.7545 31.4829 25.9707 31.2827 25.9707 30.8517C25.9707 30.3987 25.7333 30.2123 25.1421 30.2123H24.5888V31.4838L25.1341 31.4829Z" fill="#FDF6EB"/>
<path d="M28.774 29.8672C28.8366 29.8672 28.849 29.8939 28.8657 29.941L29.9106 32.8504C29.923 32.8891 29.9027 32.9242 29.8568 32.9242H29.615C29.5691 32.9242 29.5523 32.903 29.5355 32.8587L29.2735 32.1316H27.9956L27.7335 32.8587C27.7176 32.902 27.7044 32.9242 27.6585 32.9242H27.4132C27.3673 32.9242 27.3461 32.8891 27.3594 32.8504L28.4042 29.9419C28.4201 29.8949 28.4333 29.8681 28.496 29.8681L28.774 29.8672ZM29.1614 31.792L28.6407 30.2418H28.6328L28.1077 31.792H29.1614Z" fill="#FDF6EB"/>
<path d="M31.219 32.9242C31.1696 32.9242 31.1484 32.903 31.1484 32.8504V29.9373C31.1484 29.8893 31.1696 29.8672 31.219 29.8672H32.2559C32.9972 29.8672 33.3308 30.1283 33.3308 30.6552C33.3308 31.0732 33.1269 31.2559 32.9063 31.3131C33.1931 31.3786 33.4349 31.5872 33.4349 32.0577C33.4349 32.6714 33.0643 32.9233 32.2727 32.9233L31.219 32.9242ZM32.2683 31.1784C32.7969 31.1784 32.976 31.0344 32.976 30.682C32.976 30.3424 32.7801 30.2068 32.2471 30.2068H31.5023V31.1784H32.2683ZM32.248 32.5791C32.864 32.5791 33.0802 32.4481 33.0802 32.0347C33.0802 31.66 32.8931 31.5078 32.2851 31.5078H31.5032V32.5791H32.248Z" fill="#FDF6EB"/>
<path d="M35.9576 29.8672C36.0202 29.8672 36.0326 29.8939 36.0493 29.941L37.0942 32.8504C37.1065 32.8891 37.0862 32.9242 37.0404 32.9242H36.7986C36.7527 32.9242 36.7359 32.903 36.7191 32.8587L36.457 32.1316H35.1792L34.9171 32.8587C34.9012 32.902 34.888 32.9242 34.8421 32.9242H34.5968C34.5509 32.9242 34.5297 32.8891 34.543 32.8504L35.5878 29.9419C35.6037 29.8949 35.6169 29.8681 35.6796 29.8681L35.9576 29.8672ZM36.345 31.792L35.8243 30.2418H35.8164L35.2913 31.792H36.345Z" fill="#FDF6EB"/>
<path d="M38.6942 32.5745H39.9553C40.0012 32.5745 40.0259 32.5957 40.0259 32.64V32.8494C40.0259 32.902 40.0003 32.9233 39.9553 32.9233H38.4065C38.3571 32.9233 38.3359 32.902 38.3359 32.8494V29.9373C38.3359 29.8893 38.3571 29.8672 38.4065 29.8672H38.6227C38.6686 29.8672 38.6933 29.8893 38.6933 29.9373L38.6942 32.5745Z" fill="#FDF6EB"/>
<path d="M43.1735 31.5316H41.6786V32.8465C41.6786 32.8991 41.653 32.9203 41.608 32.9203H41.3909C41.3415 32.9203 41.3203 32.8991 41.3203 32.8465V29.9334C41.3203 29.8854 41.3406 29.8633 41.3909 29.8633H41.608C41.6539 29.8633 41.6786 29.8845 41.6786 29.9334V31.1837H43.1735V29.9334C43.1735 29.8854 43.1991 29.8633 43.2441 29.8633H43.4647C43.5106 29.8633 43.5318 29.8845 43.5318 29.9334V32.8465C43.5318 32.8991 43.5115 32.9203 43.4647 32.9203H43.2441C43.1982 32.9203 43.1735 32.8991 43.1735 32.8465V31.5316Z" fill="#FDF6EB"/>
<path d="M46.1889 29.8672C46.2516 29.8672 46.2639 29.8939 46.2807 29.941L47.3247 32.8504C47.337 32.8891 47.3167 32.9242 47.2708 32.9242H47.029C46.9831 32.9242 46.9664 32.903 46.9496 32.8587L46.6875 32.1316H45.4097L45.1476 32.8587C45.1317 32.902 45.1185 32.9242 45.0726 32.9242H44.8273C44.7814 32.9242 44.7602 32.8891 44.7734 32.8504L45.8183 29.9419C45.8342 29.8949 45.8474 29.8681 45.9101 29.8681L46.1889 29.8672ZM46.5763 31.792L46.0557 30.2418H46.0477L45.5226 31.792H46.5763Z" fill="#FDF6EB"/>
<path d="M50.7766 32.8474C50.7766 32.9 50.751 32.9212 50.706 32.9212H50.4775C50.4281 32.9212 50.4069 32.9046 50.3822 32.8649L48.9128 30.487V32.8474C48.9128 32.9 48.8926 32.9212 48.8458 32.9212H48.6331C48.5828 32.9212 48.5625 32.9 48.5625 32.8474V29.9343C48.5625 29.8863 48.5828 29.8642 48.6331 29.8642H48.8581C48.9076 29.8642 48.9331 29.8771 48.9579 29.9159L50.4272 32.2974V29.9334C50.4272 29.8854 50.4475 29.8633 50.4942 29.8633H50.7069C50.7528 29.8633 50.7775 29.8845 50.7775 29.9288L50.7766 32.8474Z" fill="#FDF6EB"/>
<path d="M52.3401 32.9242C52.2907 32.9242 52.2695 32.903 52.2695 32.8504V29.9373C52.2695 29.8893 52.2898 29.8672 52.3366 29.8672H53.0532C53.978 29.8672 54.5145 30.2409 54.5145 31.3426C54.5145 32.5486 53.9771 32.9233 53.0611 32.9233H52.3401V32.9242ZM52.6269 30.216V32.5754H53.0558C53.7433 32.5754 54.1466 32.3318 54.1466 31.3436C54.1466 30.455 53.7388 30.216 53.047 30.216H52.6269Z" fill="#FDF6EB"/>
<path d="M58.2407 31.3963C58.2407 32.4067 57.7951 32.9677 56.9797 32.9677C56.1713 32.9677 55.7266 32.4058 55.7266 31.3963C55.7266 30.3869 56.1722 29.8203 56.9841 29.8203C57.796 29.8203 58.2407 30.3859 58.2407 31.3963ZM57.8745 31.3963C57.8745 30.6037 57.5833 30.1599 56.9832 30.1599C56.384 30.1599 56.0919 30.6037 56.0919 31.3963C56.0919 32.189 56.384 32.6282 56.9832 32.6282C57.5842 32.6282 57.8745 32.189 57.8745 31.3963Z" fill="#FDF6EB"/>
<path d="M61.6643 32.9233C61.614 32.9233 61.5938 32.8965 61.5938 32.8494V29.941C61.5938 29.893 61.6141 29.8672 61.6608 29.8672H62.4683C63.3005 29.8672 63.6879 30.1717 63.6879 30.9292C63.6879 31.6868 63.3005 31.9876 62.4683 31.9876H61.952V32.8494C61.952 32.8974 61.9264 32.9233 61.8806 32.9233H61.6643ZM62.4674 31.6444C63.0631 31.6444 63.3208 31.457 63.3208 30.9302C63.3208 30.4033 63.0631 30.2123 62.4674 30.2123H61.9512V31.6444H62.4674Z" fill="#FDF6EB"/>
<path d="M66.0279 29.8672C66.0905 29.8672 66.1029 29.8939 66.1197 29.941L67.1645 32.8504C67.1769 32.8891 67.1566 32.9242 67.1107 32.9242H66.8689C66.823 32.9242 66.8062 32.903 66.7894 32.8587L66.5274 32.1316H65.2495L64.9874 32.8587C64.9715 32.902 64.9583 32.9242 64.9124 32.9242H64.6671C64.6212 32.9242 64.6 32.8891 64.6133 32.8504L65.6581 29.9419C65.674 29.8949 65.6872 29.8681 65.7499 29.8681L66.0279 29.8672ZM66.4153 31.792L65.8946 30.2418H65.8867L65.3616 31.792H66.4153Z" fill="#FDF6EB"/>
<path d="M69.3228 29.8672C70.1346 29.8672 70.5053 30.1855 70.5053 30.8517C70.5053 31.4266 70.1894 31.7219 69.6599 31.7874L70.5097 32.8282C70.5388 32.8716 70.53 32.9242 70.4673 32.9242H70.2132C70.1594 32.9242 70.1382 32.903 70.109 32.8679L69.2681 31.8271H68.7606V32.8504C68.7606 32.902 68.735 32.9242 68.6891 32.9242H68.4729C68.4226 32.9242 68.4023 32.903 68.4023 32.8504V29.9382C68.4023 29.8903 68.4226 29.8681 68.4729 29.8681L69.3228 29.8672ZM69.306 31.4829C69.9264 31.4829 70.1426 31.2827 70.1426 30.8517C70.1426 30.3987 69.9052 30.2123 69.3148 30.2123H68.7615V31.4838L69.306 31.4829Z" fill="#FDF6EB"/>
<path d="M72.9428 29.8672C73.0055 29.8672 73.0178 29.8939 73.0346 29.941L74.0794 32.8504C74.0918 32.8891 74.0715 32.9242 74.0256 32.9242H73.7838C73.7379 32.9242 73.7212 32.903 73.7044 32.8587L73.4423 32.1316H72.1645L71.9024 32.8587C71.8865 32.902 71.8733 32.9242 71.8274 32.9242H71.5812C71.5353 32.9242 71.5141 32.8891 71.5273 32.8504L72.5722 29.9419C72.5881 29.8949 72.6013 29.8681 72.664 29.8681L72.9428 29.8672ZM73.3302 31.792L72.8096 30.2418H72.8016L72.2765 31.792H73.3302Z" fill="#FDF6EB"/>
<path d="M77.0781 29.9373C77.0781 29.8893 77.1037 29.8672 77.1452 29.8672H79.0399C79.0902 29.8672 79.1113 29.8893 79.1113 29.9373V30.1422C79.1113 30.1901 79.0911 30.216 79.0399 30.216H78.2739V32.8504C78.2739 32.902 78.2536 32.9242 78.2033 32.9242H77.9871C77.9412 32.9242 77.9156 32.903 77.9156 32.8504V30.216H77.1496C77.1037 30.216 77.079 30.1892 77.079 30.1422L77.0781 29.9373Z" fill="#FDF6EB"/>
<path d="M82.604 31.3963C82.604 32.4067 82.1593 32.9677 81.343 32.9677C80.5346 32.9677 80.0898 32.4058 80.0898 31.3963C80.0898 30.3869 80.5355 29.8203 81.3474 29.8203C82.1593 29.8203 82.604 30.3859 82.604 31.3963ZM82.2387 31.3963C82.2387 30.6037 81.9475 30.1599 81.3474 30.1599C80.7482 30.1599 80.4561 30.6037 80.4561 31.3963C80.4561 32.189 80.7482 32.6282 81.3474 32.6282C81.9466 32.6282 82.2387 32.189 82.2387 31.3963Z" fill="#FDF6EB"/>
<path d="M84.0237 32.9242C83.9743 32.9242 83.9531 32.903 83.9531 32.8504V29.9373C83.9531 29.8893 83.9734 29.8672 84.0202 29.8672H84.7368C85.6616 29.8672 86.1981 30.2409 86.1981 31.3426C86.1981 32.5486 85.6607 32.9233 84.7447 32.9233H84.0237V32.9242ZM84.3114 30.216V32.5754H84.7403C85.4277 32.5754 85.831 32.3318 85.831 31.3436C85.831 30.455 85.4233 30.216 84.7315 30.216H84.3114Z" fill="#FDF6EB"/>
<path d="M89.9282 31.3963C89.9282 32.4067 89.4826 32.9677 88.6672 32.9677C87.8597 32.9677 87.4141 32.4058 87.4141 31.3963C87.4141 30.3869 87.8597 29.8203 88.6716 29.8203C89.4826 29.8203 89.9282 30.3859 89.9282 31.3963ZM89.562 31.3963C89.562 30.6037 89.2708 30.1599 88.6707 30.1599C88.0715 30.1599 87.7794 30.6037 87.7794 31.3963C87.7794 32.189 88.0715 32.6282 88.6707 32.6282C89.2708 32.6282 89.562 32.189 89.562 31.3963Z" fill="#FDF6EB"/>
<path d="M91.9761 32.9594C91.639 32.9594 91.3142 32.8985 91.1554 32.8201C91.1095 32.7989 91.0883 32.7804 91.1015 32.7371L91.1686 32.5414C91.1766 32.5018 91.1977 32.4713 91.2516 32.4981C91.406 32.5636 91.6637 32.6245 91.9637 32.6245C92.4129 32.6245 92.705 32.4584 92.705 32.1364C92.705 31.7885 92.3714 31.6612 91.9973 31.5052C91.5604 31.3225 91.1695 31.1564 91.1695 30.6129C91.1695 30.1248 91.4731 29.8203 92.1729 29.8203C92.4932 29.8203 92.735 29.8766 92.893 29.9467C92.9344 29.9633 92.9556 29.9855 92.9433 30.0298L92.8762 30.2217C92.8639 30.2605 92.8471 30.2826 92.7888 30.2605C92.6432 30.1996 92.4641 30.1608 92.1976 30.1608C91.7184 30.1608 91.5269 30.3177 91.5269 30.6139C91.5269 30.9534 91.8314 31.0448 92.1808 31.2016C92.63 31.4019 93.0642 31.58 93.0642 32.1465C93.0624 32.6854 92.6379 32.9594 91.9761 32.9594Z" fill="#FDF6EB"/>
<path d="M85.7275 6.75781H82.0039C81.3667 6.75781 81.086 7.05035 81.086 7.71849V13.5056H77.0059V7.71849C77.0059 7.05128 76.7261 6.75781 76.0871 6.75781H72.3635C72.3229 6.75781 72.2832 6.75873 72.2461 6.7615C72.8012 6.79749 73.0466 7.09373 73.0466 7.71849V24.6784C73.0466 25.3032 72.8004 25.5994 72.2461 25.6354C72.284 25.6382 72.3229 25.6382 72.3635 25.6382H76.0871C76.7252 25.6382 77.0059 25.3456 77.0059 24.6784V18.6255H81.086V24.6784C81.086 25.3447 81.3658 25.6382 82.0039 25.6382H85.7275H84.1963C83.5846 25.6382 83.2775 25.1851 83.507 24.492L86.6445 14.458V7.71941C86.6463 7.05128 86.3656 6.75781 85.7275 6.75781Z" fill="#FDF6EB"/>
<path d="M54.3281 6.75781C54.9906 6.75795 55.2457 7.05136 55.4248 7.6123L57.6445 14.708V24.6777C57.6446 25.3448 57.9253 25.6377 58.5625 25.6377H45.5215C46.1585 25.6376 46.4134 25.077 46.0312 24.4375L45.4512 23.4375L45.4502 23.4365L44.3086 21.4658L48.6416 7.61133C48.819 7.0504 49.0746 6.75783 49.7373 6.75781H54.3281ZM52.3096 12.6709C52.2336 12.4239 51.898 12.4212 51.8184 12.6689L50.8477 15.7031H47.6084C47.3588 15.7031 47.2534 16.0362 47.4541 16.1914L50.0508 18.1904L49.04 21.3535C48.9602 21.6024 49.2347 21.8128 49.4385 21.6582L52.0098 19.6982L54.5596 21.6611C54.7617 21.8161 55.0349 21.6105 54.959 21.3613L53.9912 18.1895L56.6143 16.1924C56.8164 16.0383 56.7135 15.7031 56.4629 15.7031H53.2344L52.3096 12.6709Z" fill="#FDF6EB"/>
<path d="M36.592 15.5045V15.2387V13.992V11.5575V11.2917H38.4286C40.0358 11.2917 40.673 11.9313 40.673 13.2657C40.673 13.3118 40.6704 13.3543 40.6695 13.3986C40.6713 13.4438 40.673 13.4844 40.673 13.5315C40.673 14.0067 40.5919 14.3925 40.4153 14.6933L40.4145 14.6915C40.1956 15.0652 39.8302 15.3088 39.2883 15.4251L39.2795 15.427C39.1824 15.4473 39.0791 15.463 38.9714 15.4759L38.9608 15.4768C38.9141 15.4823 38.8664 15.486 38.817 15.4897C38.802 15.4906 38.787 15.4916 38.7729 15.4925C38.7331 15.4953 38.6917 15.4971 38.6502 15.499C38.6343 15.4999 38.6184 15.5008 38.6016 15.5017C38.5451 15.5036 38.4887 15.5045 38.4286 15.5045H36.592ZM38.5045 6.75781H37.8929L37.892 6.75966H36.5911V6.75781H32.0008C31.3636 6.75781 31.082 7.05035 31.082 7.71849V18.3201L33.0122 24.4911C33.2417 25.1842 32.9363 25.6373 32.3229 25.6373H31.9999H35.6723C36.3104 25.6373 36.5911 25.3447 36.5911 24.6775V20.0384V20.0366H37.892L37.8929 20.0384L40.5186 24.863C40.7984 25.3696 41.1558 25.6364 41.7939 25.6364H44.048C43.5891 25.6364 43.3023 25.3816 43.2846 24.9618C43.2784 24.8215 43.3023 24.6637 43.3605 24.4902L44.3066 21.4651L43.0295 19.2632C43.0295 19.2632 45.6023 18.1475 46.0797 15.1252C46.1636 14.5973 46.2236 14.0252 46.2298 13.3976C46.2227 12.7701 46.1671 12.1961 46.0797 11.6701C45.5793 8.68655 43.0295 7.533 43.0295 7.533C41.8248 6.98945 40.3041 6.75781 38.5045 6.75781Z" fill="#FDF6EB"/>
<path d="M44.3078 21.4648L43.3618 24.4895C43.3044 24.663 43.2806 24.8208 43.2859 24.9611C43.3035 25.3818 43.5912 25.6365 44.0492 25.6365H45.5177C46.1557 25.6365 46.4098 25.0764 46.0277 24.437L45.4488 23.4367L45.4479 23.4358L44.3078 21.4648Z" fill="#FDF6EB"/>
<path d="M94.473 6.75781H89.8826C89.2198 6.75781 88.9639 7.05035 88.7865 7.61144L86.6453 14.4571V24.6775C86.6453 25.3438 86.3647 25.6373 85.7266 25.6373H88.0716C88.7097 25.6373 89.0407 25.3447 89.1942 24.7578L92.1526 12.4647H92.2241H92.2285L93.6919 18.5978L95.1614 24.7569C95.1905 24.8667 95.2249 24.9664 95.2664 25.0559C95.4482 25.4435 95.7651 25.6373 96.2831 25.6373H100.159C100.618 25.6373 100.905 25.3826 100.923 24.9627C100.923 24.9516 100.924 24.9405 100.924 24.9295C98.3466 23.6126 96.8083 20.7859 96.8083 16.0647C96.8083 14.7828 96.9212 13.6413 97.1383 12.6298L95.5682 7.61052C95.5656 7.60037 95.5612 7.59114 95.5585 7.58098C95.5285 7.49055 95.4967 7.40657 95.4606 7.33089L95.4579 7.32351C95.2814 6.95161 95.0113 6.75781 94.473 6.75781Z" fill="#FDF6EB"/>
<path d="M97.1426 12.6328C96.9264 13.6433 96.8125 14.7858 96.8125 16.0676C96.8125 20.7889 98.35 23.6155 100.928 24.9324C100.93 24.8005 100.905 24.6537 100.852 24.4941L97.4003 13.4541L97.1426 12.6328Z" fill="#FDF6EB"/>
<path d="M86.6443 14.457L83.5058 24.4911C83.2764 25.1841 83.5826 25.6372 84.1951 25.6372H85.7264C86.3636 25.6372 86.6452 25.3438 86.6452 24.6766L86.6443 14.457Z" fill="#FDF6EB"/>
<path d="M72.1273 6.75781H68.6076C67.9704 6.75781 67.6897 7.05035 67.6897 7.71849V15.8782L63.2009 7.34474C62.9714 6.91838 62.7419 6.75781 62.1038 6.75781H58.5594C57.9213 6.75781 57.6406 7.05035 57.6406 7.71849V14.7072L60.6997 24.4911C60.9291 25.1842 60.6238 25.6373 60.0104 25.6373H62.0765C62.7137 25.6373 62.9953 25.3447 62.9953 24.6775V16.5178L67.4841 25.0513C67.7127 25.4776 67.943 25.6373 68.5802 25.6373H72.1247C72.1653 25.6373 72.2041 25.6364 72.2421 25.6345C71.6869 25.5985 71.4416 25.3023 71.4416 24.6775V7.71757C71.4416 7.0928 71.6878 6.79657 72.2421 6.76058C72.2068 6.75873 72.167 6.75781 72.1273 6.75781Z" fill="#FDF6EB"/>
<path d="M72.2458 6.76172C71.6907 6.79771 71.4453 7.09394 71.4453 7.71871V24.6787C71.4453 25.3034 71.6916 25.5997 72.2458 25.6356C72.801 25.5997 73.0463 25.3034 73.0463 24.6787V7.71778C73.0463 7.09394 72.8001 6.79679 72.2458 6.76172Z" fill="#FDF6EB"/>
<path d="M57.6406 14.707V24.6783C57.6406 25.3446 57.9204 25.6381 58.5594 25.6381H60.013C60.6246 25.6381 60.9309 25.185 60.7014 24.4919L57.6406 14.707Z" fill="#FDF6EB"/>
<path d="M26.6384 6.75781H22.0481C21.5097 6.75781 21.2397 6.95161 21.0623 7.32443L21.0596 7.33182C21.0243 7.40749 20.9917 7.49147 20.9617 7.58191C20.959 7.59206 20.9546 7.60129 20.9519 7.61144L19.1259 13.4521L18.5672 15.2378V24.6794C18.5672 25.3457 18.2865 25.6391 17.6484 25.6391H20.237C20.7551 25.6391 21.0711 25.4453 21.2538 25.0577L21.2573 25.0485C21.297 24.9618 21.3315 24.8649 21.3588 24.7587L24.2916 12.4656H24.296H24.3675L27.3259 24.7587C27.4795 25.3447 27.8105 25.6382 28.4486 25.6382H32.001C31.3638 25.6382 31.0822 25.3457 31.0822 24.6784V19.0796V18.3201L27.7328 7.61144C27.5554 7.05127 27.3012 6.75781 26.6384 6.75781Z" fill="#FDF6EB"/>
<path d="M18.5636 15.2344L15.6696 24.4886C15.6352 24.5901 15.6149 24.6861 15.6034 24.7765C15.5955 24.8393 15.592 24.9002 15.5946 24.9574V24.9602C15.6123 25.381 15.9 25.6357 16.3581 25.6357H17.6457C18.2838 25.6357 18.5645 25.3432 18.5645 24.675L18.5636 15.2344Z" fill="#FDF6EB"/>
<path d="M31.082 18.3203V19.0798V24.6787C31.082 25.345 31.3627 25.6394 32.0008 25.6394H32.3238C32.9355 25.6394 33.2426 25.1862 33.0131 24.4932L31.082 18.3203Z" fill="#FDF6EB"/>
<path d="M105.124 20.8643C103.365 20.8643 102.447 19.5585 102.447 16.0646C102.447 12.5717 103.365 11.265 105.124 11.265C106.883 11.265 107.802 12.5708 107.802 16.0646C107.803 19.5585 106.884 20.8643 105.124 20.8643ZM105.124 6.30469C101.032 6.30469 98.0903 8.19743 97.1406 12.6308L97.3966 13.4521L100.849 24.4911C100.902 24.6507 100.927 24.7975 100.925 24.9304C102.118 25.5394 103.534 25.8246 105.124 25.8246C110.147 25.8246 113.437 22.9721 113.437 16.0646C113.438 9.15811 110.149 6.30469 105.124 6.30469Z" fill="#FDF6EB"/>
</g>
</svg>
