<svg width="23" height="27" viewBox="0 0 23 27" fill="none" xmlns="http://www.w3.org/2000/svg">
<path d="M17.0029 21.2398C16.6803 20.9645 15.9661 20.565 14.5377 20.5472C13.4398 20.5348 12.7021 20.9628 12.3622 21.2025C12.0505 20.6786 11.9174 20.121 11.9174 20.121C11.9174 20.121 11.4334 18.1267 13.078 16.7663C13.9848 16.0169 15.6685 16.7575 16.9982 17.5726C17.3522 17.9899 18.0304 18.663 18.9247 18.9471C20.0242 19.2952 21.4494 19.0572 23 17.0345C23 17.0345 20.4909 13.4774 17.6247 16.5372C17.5574 16.6101 14.7319 10.6502 19.6655 6.99897C20.6663 8.16928 22.2576 6.50528 22.2576 6.50528C21.2317 5.00998 20.2857 5.26393 19.7877 5.57471C19.5809 4.94427 18.8746 1.9821 23 0.0570412C23 0.0570412 18.1008 -0.695934 12.3638 3.26962L11.5008 3.29981L10.6378 3.26962C4.89758 -0.695934 0 0.0570412 0 0.0570412C4.12543 1.9821 3.41907 4.94427 3.21233 5.57471C2.71583 5.26393 1.76827 5.00998 0.74239 6.50528C0.74239 6.50528 2.33211 8.16928 3.33449 6.99897C8.2681 10.6502 5.44263 16.6101 5.37528 16.5372C2.50909 13.4774 0 17.0345 0 17.0345C1.55056 19.0572 2.97583 19.2952 4.07532 18.9471C4.96963 18.663 5.64937 17.9899 6.00177 17.5726C7.33149 16.7575 9.01518 16.0169 9.92203 16.7663C11.565 18.1249 11.0826 20.121 11.0826 20.121C11.0826 20.121 10.9495 20.6804 10.6378 21.2025C10.2964 20.9628 9.55866 20.5348 8.46231 20.5472C7.03391 20.5632 6.31971 20.9645 5.99707 21.2398C5.79033 21.4156 5.67286 21.7015 5.70106 21.9945C5.71672 22.1526 5.82009 22.4563 5.96575 22.5895C6.34321 22.934 7.781 24.1132 10.2509 21.9537C10.2509 21.9537 10.3433 21.8933 10.4655 21.7601L10.4686 21.7566C10.5094 21.7122 10.5532 21.6607 10.6002 21.6038L10.6049 21.5985C10.6049 21.5985 11.4162 22.3977 10.9808 22.9091C10.5454 23.4206 10.052 23.8273 8.43255 23.7633C8.43255 23.7633 9.45373 24.4186 10.7349 23.5484C11.8297 22.8043 11.2862 21.9839 11.1312 21.7299C11.1061 21.6891 11.0795 21.6553 11.0497 21.6092C11.0121 21.5523 10.9213 21.4511 10.7991 21.3375C11.1045 20.8917 11.4287 20.2311 11.446 19.416C11.4695 18.3202 11.2204 16.8303 10.4123 15.9565C10.9996 15.5481 11.3301 14.9478 11.5008 14.5376C11.6715 14.9478 12.002 15.5481 12.5893 15.9565C11.7811 16.8303 11.5321 18.3202 11.5556 19.416C11.5728 20.2311 11.897 20.8917 12.2024 21.3375C12.0803 21.4529 11.9894 21.5523 11.9519 21.6092C11.9221 21.6553 11.8955 21.6891 11.8704 21.7299C11.7154 21.9839 11.1719 22.8043 12.2667 23.5484C13.5478 24.4186 14.569 23.7633 14.569 23.7633C12.9495 23.8273 12.4562 23.4206 12.0208 22.9091C11.5854 22.3977 12.3967 21.5985 12.3967 21.5985L12.4014 21.6038C12.4483 21.6625 12.4922 21.7122 12.5329 21.7566L12.5361 21.7601C12.6567 21.8951 12.7506 21.9537 12.7506 21.9537C15.2206 24.1132 16.6584 22.934 17.0358 22.5895C17.1815 22.4563 17.2848 22.1544 17.3005 21.9945C17.3303 21.7033 17.2128 21.4174 17.0045 21.2398H17.0029ZM22.1965 16.9439C22.1965 16.9439 20.3734 19.9097 17.8518 16.7894C17.8518 16.7894 19.7078 14.1309 22.1965 16.9439ZM21.7298 6.38097C21.7298 6.38097 20.7854 7.53351 19.7313 6.45555C19.7313 6.45555 20.5833 5.10233 21.7298 6.38097ZM1.27021 6.38097C2.41668 5.10233 3.26871 6.45555 3.26871 6.45555C2.21307 7.53351 1.27021 6.38097 1.27021 6.38097ZM0.801907 16.9439C3.29064 14.1327 5.14661 16.7894 5.14661 16.7894C2.62499 19.9097 0.801907 16.9439 0.801907 16.9439ZM6.05189 22.2467C5.79346 21.7939 6.20225 21.5346 6.20225 21.5346C8.67375 20.0446 10.4702 21.4511 10.4702 21.4511C8.09268 23.7385 6.33381 22.7422 6.05032 22.2485L6.05189 22.2467ZM8.35894 15.1592C7.84208 15.1592 6.74416 15.8375 6.74416 15.8375C7.63064 14.8324 8.09111 13.0139 8.09111 13.0139C8.52496 14.3121 8.35894 15.1592 8.35894 15.1592ZM9.40361 15.3225C9.36915 15.3119 9.33469 15.303 9.30024 15.2959C9.80769 9.471 3.80749 5.99737 3.80749 5.99737C4.47783 3.75088 4.40892 1.80451 4.40892 1.80451C8.4858 2.04248 10.4624 5.31543 10.4624 5.31543C10.4624 5.31543 10.5078 10.1494 10.5078 12.5948C10.5078 14.1451 9.86251 14.9496 9.40361 15.3243V15.3225ZM14.6411 15.1592C14.6411 15.1592 14.475 14.3121 14.9089 13.0139C14.9089 13.0139 15.3694 14.8324 16.2558 15.8375C16.2558 15.8375 15.1579 15.1592 14.6411 15.1592ZM12.4922 12.593C12.4922 10.1476 12.5376 5.31366 12.5376 5.31366C12.5376 5.31366 14.5142 2.0407 18.5911 1.80274C18.5911 1.80274 18.5222 3.7491 19.1925 5.9956C19.1925 5.9956 13.1923 9.46745 13.6998 15.2941C13.6653 15.303 13.6308 15.3119 13.5964 15.3208C13.1391 14.9461 12.4922 14.1434 12.4922 12.5912V12.593ZM16.9481 22.2467C16.6646 22.7404 14.9058 23.7367 12.5282 21.4493C12.5282 21.4493 14.3247 20.0428 16.7962 21.5328C16.7962 21.5328 17.2065 21.7939 16.9465 22.2449L16.9481 22.2467Z" fill="#FDFCF3"/>
<path d="M11.5 27C12.0523 27 12.5 26.5523 12.5 26C12.5 25.4477 12.0523 25 11.5 25C10.9477 25 10.5 25.4477 10.5 26C10.5 26.5523 10.9477 27 11.5 27Z" fill="#FDFCF3"/>
</svg>
